# xmcd
#
# Track frame offsets:
#	150
#	15387
#	31385
#	48095
#	61599
#	76819
#	89406
#	102894
#	121019
#	134022
#	147941
#	163641
#	178201
#	187563
#	208731
#	225199
#	239215
#
# Disc length: 3356 seconds
#
# Revision: 0
# Processed by: cddbd v1.5.1PL0 Copyright (c) Steve Scherf et al.
# Submitted via: dBpowerAMP V4.0
#
DISCID=d30d1a11
DTITLE=Ivan Rosenberg - The Good, The Bad, And The Lonesome
DYEAR=1900
DGENRE=Bluegrass
TTITLE0=Pepperwood Hollow
TTITLE1=Back To The Pasture
TTITLE2=Last Light
TTITLE3=Devil's Chute
TTITLE4=Out Among The Corn
TTITLE5=Split The Switch
TTITLE6=Soda Springs
TTITLE7=Late Night Ramble
TTITLE8=Camp Rude Stumble
TTITLE9=Eel River
TTITLE10=Carbon Country Coal
TTITLE11=The Lost Coast
TTITLE12=Lolo Trace
TTITLE13=Wildwood Ramble
TTITLE14=Dead Horse Blues
TTITLE15=The Roscoe Special
TTITLE16=Dry Lagoon
EXTD=
EXTT0=
EXTT1=
EXTT2=
EXTT3=
EXTT4=
EXTT5=
EXTT6=
EXTT7=
EXTT8=
EXTT9=
EXTT10=
EXTT11=
EXTT12=
EXTT13=
EXTT14=
EXTT15=
EXTT16=
PLAYORDER=
